<svg width="32" height="43" fill="none" xmlns="http://www.w3.org/2000/svg"><path d="M15.888 18.624 2.313 21.085l5.094 19.986c.148.541.64.935 1.206.935h14.768c.566 0 1.059-.394 1.206-.935l5.095-19.986-13.794-2.461Zm-2.352-3.692c.68 0 1.23-.55 1.23-1.23V1.23a1.23 1.23 0 1 0-2.46 0V13.7c0 .68.55 1.23 1.23 1.23Zm4.923 0c.68 0 1.23-.55 1.23-1.23V1.23a1.23 1.23 0 1 0-2.461 0V13.7c0 .68.55 1.23 1.23 1.23Z" fill="url(#a)"/><path d="M31.31 15.055c-.591-.295-1.33-.05-1.65.566l-1.501 3.003-3.741-5.612a1.25 1.25 0 0 0-1.034-.541H8.616a1.25 1.25 0 0 0-1.034.541l-3.74 5.612L2.34 15.62c-.32-.615-1.059-.861-1.65-.566-.615.32-.86 1.058-.565 1.649l2.19 4.381h27.37l2.19-4.381c.296-.59.05-1.329-.566-1.649ZM16 27.238a3.696 3.696 0 0 0-3.692 3.692A3.696 3.696 0 0 0 16 34.622a3.696 3.696 0 0 0 3.692-3.692A3.696 3.696 0 0 0 16 27.238Z" fill="url(#b)"/><defs><linearGradient id="a" x1="15.997" y1="42.006" x2="15.997" y2="0" gradientUnits="userSpaceOnUse"><stop stop-color="#FD3A84"/><stop offset="1" stop-color="#FFA68D"/></linearGradient><linearGradient id="b" x1="16" y1="34.622" x2="16" y2="12.471" gradientUnits="userSpaceOnUse"><stop stop-color="#FFC2CC"/><stop offset="1" stop-color="#FFF2F4"/></linearGradient></defs></svg>