<svg width="49" height="16" fill="none" xmlns="http://www.w3.org/2000/svg"><path d="m19.992.384-2.378 14.799h3.801L23.792.384h-3.8Zm11.466 6.028c-1.329-.656-2.143-1.098-2.143-1.77.016-.61.688-1.234 2.19-1.234a6.615 6.615 0 0 1 2.831.548l.345.154.517-3.096a9.594 9.594 0 0 0-3.412-.61c-3.753 0-6.397 1.951-6.413 4.742-.031 2.06 1.892 3.203 3.332 3.889 1.47.703 1.97 1.16 1.97 1.784-.015.96-1.188 1.402-2.283 1.402-1.516 0-2.33-.228-3.567-.762l-.5-.228-.532 3.218c.893.396 2.535.746 4.24.764 3.989 0 6.585-1.922 6.617-4.897.013-1.632-1-2.882-3.192-3.904ZM44.943.43h-2.941c-.906 0-1.595.26-1.987 1.19l-5.647 13.563h3.99l1.098-2.936h4.463l.57 2.948h3.519L44.943.43Zm-4.38 8.853c.077.008 1.53-4.793 1.53-4.793l1.159 4.793h-2.69ZM14.438.384 10.714 10.44l-.406-1.983c-.689-2.288-2.847-4.774-5.257-6.009l3.41 12.721h4.022L18.46.386h-4.022V.384Z" fill="#2394BC"/><path d="M9.056 2.294C8.766 1.165 7.841.404 6.584.388H.686L.625.662c4.6 1.134 8.462 4.624 9.715 7.907L9.056 2.294Z" fill="#EFC75E"/></svg>