<svg width="11" height="10" fill="none" xmlns="http://www.w3.org/2000/svg"><path d="M7.172 0h2.531c.352 0 .65.133.897.398.246.265.369.587.369.966V4.09c0 .379-.123.7-.37.966a1.178 1.178 0 0 1-.896.398H8.227a.59.59 0 0 0-.448.198.684.684 0 0 0-.185.483v.228c0 .502.165.93.494 1.285.33.355.728.533 1.193.533h.422c.115 0 .213.045.297.135.083.09.125.196.125.32v.908c0 .123-.042.23-.125.32a.392.392 0 0 1-.297.135h-.422c-.457 0-.893-.096-1.308-.288a3.396 3.396 0 0 1-1.078-.777 3.694 3.694 0 0 1-.721-1.162 3.78 3.78 0 0 1-.267-1.41v-5c0-.378.123-.7.369-.965S6.82 0 7.172 0ZM.37.398C.616.133.915 0 1.266 0h2.531c.352 0 .65.133.896.398.247.265.37.587.37.966V4.09c0 .379-.123.7-.37.966a1.178 1.178 0 0 1-.896.397H2.321a.59.59 0 0 0-.449.2.685.685 0 0 0-.184.482v.228c0 .501.165.93.494 1.285.33.355.727.533 1.193.533h.422c.114 0 .213.045.297.135.083.09.125.196.125.32v.908c0 .123-.042.23-.125.32a.392.392 0 0 1-.297.135h-.422c-.457 0-.893-.096-1.308-.288a3.397 3.397 0 0 1-1.078-.778 3.692 3.692 0 0 1-.721-1.16A3.78 3.78 0 0 1 0 6.363v-5C0 .984.124.663.37.398Z" fill="#F6762C"/></svg>