<svg width="19" height="22" fill="none" xmlns="http://www.w3.org/2000/svg"><path d="M16.67 5.06a.458.458 0 0 0-.687.345c-.017.15-.042.3-.074.458-.898 4.073-2.7 6.054-5.511 6.054H6.273a.458.458 0 0 0-.448.367L4.45 18.729l-.246 1.64A1.375 1.375 0 0 0 5.549 22h2.759a1.369 1.369 0 0 0 1.334-1.044l1.114-4.456h2.392c2.822 0 4.773-2.25 5.492-6.337a4.79 4.79 0 0 0-1.97-5.104Z" fill="#03A9F4"/><path d="M15.805 1.634A4.823 4.823 0 0 0 12.23 0H4.64a2.28 2.28 0 0 0-2.268 1.949L.015 17.67a1.375 1.375 0 0 0 1.362 1.58h3.52a.458.458 0 0 0 .448-.367l1.297-6.05H10.4c3.262 0 5.417-2.28 6.407-6.783.04-.18.07-.361.091-.544a4.733 4.733 0 0 0-1.093-3.872Z" fill="#283593"/></svg>