<svg width="35" height="21" fill="none" xmlns="http://www.w3.org/2000/svg"><path d="M34.623 10.846C34.623 16.433 30.11 21 24.47 21c-5.587 0-10.154-4.567-10.154-10.154S18.828.692 24.415.692c5.695 0 10.208 4.567 10.208 10.154Z" fill="#FFB600"/><path d="M24.47.692c5.587 0 10.153 4.567 10.153 10.154S30.11 21 24.47 21c-5.587 0-10.154-4.567-10.154-10.154" fill="#F7981D"/><path d="M24.47.692c5.587 0 10.153 4.567 10.153 10.154S30.11 21 24.47 21" fill="#FF8500"/><path d="M10.824.692C5.29.746.777 5.26.777 10.846S5.29 21 10.931 21c2.633 0 4.997-1.02 6.823-2.632.376-.323.699-.699 1.02-1.075H16.68a12.4 12.4 0 0 1-.752-1.02h3.6c.214-.323.429-.699.59-1.075h-4.781a6.398 6.398 0 0 1-.43-1.075h5.587c.322-1.02.537-2.095.537-3.223 0-.752-.107-1.45-.215-2.149h-6.232c.054-.376.162-.698.27-1.074h5.586a6.413 6.413 0 0 0-.43-1.075h-4.727c.161-.376.376-.698.59-1.074h3.6a5.11 5.11 0 0 0-.805-1.075H16.68a9.159 9.159 0 0 1 1.02-1.02C15.928 1.766 13.51.8 10.878.8c0-.108 0-.108-.054-.108Z" fill="#FF5050"/><path d="M.777 10.846C.777 16.433 5.29 21 10.931 21c2.633 0 4.997-1.02 6.823-2.632.376-.323.699-.699 1.02-1.075H16.68a12.384 12.384 0 0 1-.752-1.02h3.6c.214-.323.429-.7.59-1.075h-4.781a6.398 6.398 0 0 1-.43-1.075h5.587c.322-1.02.537-2.095.537-3.223 0-.752-.107-1.45-.215-2.149h-6.232c.054-.376.162-.698.27-1.075h5.586a6.413 6.413 0 0 0-.43-1.074h-4.727c.161-.376.376-.698.59-1.074h3.6a5.11 5.11 0 0 0-.805-1.075H16.68a9.159 9.159 0 0 1 1.02-1.02C15.928 1.766 13.51.8 10.878.8h-.054" fill="#E52836"/><path d="M10.932 21c2.632 0 4.996-1.02 6.823-2.632.376-.323.698-.699 1.02-1.075H16.68a12.382 12.382 0 0 1-.752-1.02h3.6c.214-.323.43-.7.59-1.075h-4.781a6.415 6.415 0 0 1-.43-1.075h5.588c.322-1.02.537-2.095.537-3.223 0-.752-.108-1.45-.215-2.149h-6.232c.054-.376.161-.698.268-1.075h5.588a6.397 6.397 0 0 0-.43-1.074h-4.728c.162-.376.376-.698.591-1.074h3.6a5.108 5.108 0 0 0-.806-1.075H16.68a9.16 9.16 0 0 1 1.02-1.02C15.929 1.766 13.51.8 10.879.8h-.054" fill="#CB2026"/><path d="m14.53 13.424.16-.913c-.053 0-.16.053-.268.053-.376 0-.43-.214-.376-.322l.322-1.88h.591l.162-1.021h-.538l.108-.645h-1.075s-.644 3.546-.644 3.976c0 .645.376.913.86.913.322 0 .59-.107.698-.161ZM14.91 11.705c0 1.504 1.02 1.88 1.88 1.88.805 0 1.128-.161 1.128-.161l.215-1.02s-.591.268-1.129.268c-1.182 0-.967-.86-.967-.86h2.203s.161-.698.161-.967c0-.698-.376-1.558-1.558-1.558-1.128-.107-1.934 1.075-1.934 2.418Zm1.88-1.558c.59 0 .483.698.483.752h-1.182c0-.054.108-.752.698-.752ZM23.618 13.424l.215-1.182s-.537.269-.913.269c-.753 0-1.075-.591-1.075-1.236 0-1.29.645-1.988 1.397-1.988.537 0 .967.323.967.323l.161-1.128s-.645-.27-1.236-.27c-1.235 0-2.47 1.075-2.47 3.117 0 1.343.644 2.256 1.933 2.256.43 0 1.02-.16 1.02-.16ZM8.623 9.18c-.753 0-1.29.215-1.29.215l-.161.913s.484-.215 1.182-.215c.376 0 .698.054.698.376 0 .215-.053.269-.053.269h-.484c-.913 0-1.934.376-1.934 1.611 0 .967.645 1.182 1.02 1.182.753 0 1.075-.483 1.129-.483l-.054.43h.967l.43-2.955c0-1.29-1.074-1.343-1.45-1.343Zm.214 2.417c0 .161-.107 1.021-.752 1.021-.322 0-.43-.269-.43-.43 0-.268.162-.645.968-.645a.846.846 0 0 0 .214.054ZM11.094 13.531c.269 0 1.612.054 1.612-1.397 0-1.343-1.29-1.074-1.29-1.611 0-.269.215-.376.591-.376.162 0 .752.053.752.053l.162-.967s-.376-.107-1.021-.107c-.806 0-1.612.322-1.612 1.397 0 1.236 1.343 1.128 1.343 1.611 0 .323-.376.377-.644.377-.484 0-.967-.162-.967-.162l-.162.967c.054.108.323.215 1.236.215ZM32.534 8.32l-.215 1.45s-.43-.536-1.02-.536c-.968 0-1.827 1.182-1.827 2.578 0 .86.43 1.773 1.343 1.773.644 0 1.02-.43 1.02-.43l-.053.377h1.074l.806-5.158-1.128-.054Zm-.484 2.848c0 .59-.268 1.343-.86 1.343-.375 0-.59-.323-.59-.86 0-.86.376-1.397.86-1.397.375 0 .59.269.59.914ZM2.77 13.478l.644-3.868.108 3.868h.752L5.671 9.61l-.591 3.868h1.128l.86-5.158H5.295L4.22 11.49l-.053-3.17H2.609l-.86 5.158h1.02ZM19.424 13.478c.323-1.773.376-3.224 1.128-2.955.108-.699.269-.967.376-1.236h-.215c-.483 0-.86.645-.86.645l.108-.591h-1.02l-.699 4.19h1.182v-.053ZM26.088 9.18c-.752 0-1.29.215-1.29.215l-.16.913s.483-.215 1.181-.215c.376 0 .699.054.699.376 0 .215-.054.269-.054.269h-.483c-.914 0-1.935.376-1.935 1.611 0 .967.645 1.182 1.021 1.182.752 0 1.075-.483 1.128-.483l-.053.43h.967l.43-2.955c.053-1.29-1.075-1.343-1.451-1.343Zm.268 2.417c0 .161-.107 1.021-.752 1.021-.322 0-.43-.269-.43-.43 0-.268.162-.645.968-.645.16.054.16.054.215.054ZM28.448 13.478c.322-1.773.376-3.224 1.128-2.955.107-.699.268-.967.376-1.236h-.215c-.484 0-.86.645-.86.645l.108-.591h-1.021l-.698 4.19h1.182v-.053Z" fill="#fff"/><path d="M12.866 12.672c0 .645.376.913.86.913.376 0 .698-.107.806-.161l.16-.913c-.053 0-.16.053-.268.053-.376 0-.43-.214-.376-.322l.322-1.88h.591l.162-1.021h-.538l.108-.645M15.444 11.705c0 1.504.484 1.88 1.343 1.88.806 0 1.129-.161 1.129-.161l.215-1.02s-.591.268-1.129.268c-1.182 0-.967-.86-.967-.86h2.203s.161-.698.161-.967c0-.698-.376-1.558-1.558-1.558-1.128-.107-1.397 1.075-1.397 2.418Zm1.343-1.558c.591 0 .699.698.699.752h-1.397c0-.054.108-.752.698-.752ZM23.616 13.424l.215-1.182s-.537.269-.914.269c-.752 0-1.074-.591-1.074-1.236 0-1.29.645-1.988 1.397-1.988.537 0 .967.323.967.323l.161-1.128s-.645-.27-1.236-.27c-1.235 0-1.934 1.075-1.934 3.117 0 1.343.108 2.256 1.397 2.256.43 0 1.02-.16 1.02-.16ZM7.172 10.362s.484-.215 1.182-.215c.376 0 .698.053.698.376 0 .215-.053.268-.053.268h-.484c-.913 0-1.934.377-1.934 1.612 0 .967.645 1.182 1.02 1.182.753 0 1.075-.484 1.129-.484l-.054.43h.967l.43-2.955c0-1.235-1.074-1.289-1.504-1.289l-1.397 1.075Zm2.203 1.235c0 .161-.645 1.021-1.29 1.021-.322 0-.43-.269-.43-.43 0-.268.162-.645.968-.645.16.054.752.054.752.054ZM9.913 13.424s.322.107 1.236.107c.268 0 1.612.054 1.612-1.397 0-1.343-1.29-1.074-1.29-1.611 0-.269.215-.376.591-.376.161 0 .752.053.752.053l.161-.967s-.376-.107-1.02-.107c-.806 0-1.075.322-1.075 1.397 0 1.236.806 1.128.806 1.611 0 .323-.376.377-.645.377M32.316 9.77s-.43-.536-1.02-.536c-.967 0-1.29 1.181-1.29 2.578 0 .86-.107 1.773.806 1.773.645 0 1.021-.43 1.021-.43l-.054.377h1.075l.806-5.158-1.343 1.397Zm-.053 1.398c0 .59-.484 1.343-1.075 1.343-.376 0-.59-.323-.59-.86 0-.86.375-1.397.859-1.397.376 0 .806.269.806.914ZM2.77 13.478l.644-3.868.108 3.868h.752L5.671 9.61l-.591 3.868h1.128l.86-5.158H5.725L4.22 11.49l-.053-3.17h-.591l-1.827 5.158h1.02ZM18.295 13.478h1.128c.323-1.773.376-3.224 1.128-2.955.108-.699.269-.967.376-1.236h-.215c-.483 0-.86.645-.86.645l.108-.591M24.637 10.362s.484-.215 1.182-.215c.376 0 .699.053.699.376 0 .215-.054.268-.054.268h-.483c-.914 0-1.935.377-1.935 1.612 0 .967.645 1.182 1.021 1.182.752 0 1.075-.484 1.128-.484l-.053.43h.967l.43-2.955c0-1.235-1.075-1.289-1.505-1.289l-1.397 1.075Zm2.203 1.235c0 .161-.645 1.021-1.29 1.021-.322 0-.43-.269-.43-.43 0-.268.162-.645.968-.645.215.054.752.054.752.054ZM27.323 13.478h1.128c.323-1.773.377-3.224 1.129-2.955.107-.699.268-.967.376-1.236h-.215c-.484 0-.86.645-.86.645l.108-.591" fill="#DCE5E5"/></svg>