<svg width="44" height="44" fill="none" xmlns="http://www.w3.org/2000/svg"><path d="M35.575 30.372H12.543a.934.934 0 0 1-.933-.934V18.68c0-.515.418-.933.934-.933h23.03c.516 0 .934.418.934.933v10.758a.933.933 0 0 1-.934.934Z" fill="url(#a)"/><path d="m11.635 29.05 1.322 1.322h22.617a.934.934 0 0 0 .934-.934V18.68a.934.934 0 0 0-.934-.934h-23.03a.934.934 0 0 0-.934.934v10.316l.025.054Z" fill="url(#b)"/><path d="M34.172 28.971H11.14a.934.934 0 0 1-.934-.933V17.28c0-.516.418-.934.934-.934h23.03c.516 0 .934.418.934.934v10.758a.934.934 0 0 1-.933.933Z" fill="url(#c)"/><path d="m10.232 27.65 1.322 1.321h22.617a.934.934 0 0 0 .934-.933V17.28a.934.934 0 0 0-.933-.934H11.14a.934.934 0 0 0-.934.934v10.315l.025.055Z" fill="url(#d)"/><path d="M32.774 27.57H9.743a.934.934 0 0 1-.934-.933V15.88c0-.515.418-.933.934-.933h23.03c.516 0 .934.418.934.933v10.758a.934.934 0 0 1-.933.934Z" fill="url(#e)"/><path d="m8.834 26.25 1.322 1.32h22.618a.934.934 0 0 0 .933-.933V15.88a.934.934 0 0 0-.933-.933H9.743a.934.934 0 0 0-.934.933v10.316l.025.054Z" fill="url(#f)"/><path d="M31.457 26.253H8.427a.934.934 0 0 1-.934-.933V14.562c0-.516.418-.934.933-.934h23.031c.516 0 .934.418.934.934V25.32a.934.934 0 0 1-.934.933Z" fill="url(#g)"/><path d="M30.983 16.297a1.345 1.345 0 0 1-1.263-1.264c-.008-.15.01-.293.047-.429H10.113a1.333 1.333 0 0 1-1.216 1.693 1.333 1.333 0 0 1-.643-.127v7.541a1.333 1.333 0 0 1 1.906 1.138c.008.149-.01.293-.047.428h19.654a1.333 1.333 0 0 1-.047-.428 1.345 1.345 0 0 1 1.262-1.265c.231-.012.45.035.644.127v-7.54a1.332 1.332 0 0 1-.643.126Z" fill="url(#h)"/><path d="M19.94 23.174a3.233 3.233 0 1 0 0-6.466 3.233 3.233 0 0 0 0 6.466Z" fill="url(#i)"/><path d="M15.496 15.792h-4.965v1.428h4.965v-1.428Z" fill="url(#j)"/><path d="M29.348 22.662h-4.965v1.428h4.965v-1.428Z" fill="url(#k)"/><path d="M42.732 9.973a1.93 1.93 0 0 0-2.327.835 21.573 21.573 0 0 0-5.708-6.22A21.42 21.42 0 0 0 21.94.415 21.42 21.42 0 0 0 9.183 4.587a21.491 21.491 0 0 0-7.733 10.61 1.93 1.93 0 0 0 3.665 1.217A17.65 17.65 0 0 1 11.468 7.7 17.583 17.583 0 0 1 21.94 4.277c3.799 0 7.42 1.184 10.472 3.424a17.744 17.744 0 0 1 4.45 4.724 1.931 1.931 0 0 0-.948 3.723l4.02 1.471.03.01.101.032.055.015c.035.009.07.016.105.023l.054.011c.037.006.075.01.113.015l.046.005a1.956 1.956 0 0 0 .309.001c.012 0 .023-.003.035-.004.039-.003.077-.007.114-.013l.044-.009.105-.021.048-.013.098-.028.014-.005.029-.01a1.941 1.941 0 0 0 .297-.133l.038-.02c.047-.027.092-.057.137-.088l.05-.038a2.066 2.066 0 0 0 .229-.201c.008-.01.018-.017.026-.026.04-.043.078-.088.114-.134l.007-.01c.032-.043.062-.086.091-.131l.023-.037c.022-.037.043-.074.063-.112l.024-.048c.017-.036.034-.073.049-.11l.021-.052.008-.018 1.47-4.02a1.931 1.931 0 0 0-1.149-2.477Z" fill="url(#l)"/><path d="M1.268 34.027a1.93 1.93 0 0 0 2.327-.836 21.573 21.573 0 0 0 5.708 6.221 21.42 21.42 0 0 0 12.757 4.172c4.626 0 9.037-1.442 12.756-4.172a21.491 21.491 0 0 0 7.734-10.61 1.93 1.93 0 1 0-3.665-1.216 17.65 17.65 0 0 1-6.353 8.713 17.583 17.583 0 0 1-10.472 3.424c-3.799 0-7.42-1.184-10.472-3.424a17.745 17.745 0 0 1-4.45-4.724 1.931 1.931 0 0 0 .948-3.723l-4.02-1.471-.03-.01a1.919 1.919 0 0 0-.101-.032l-.055-.015a2.062 2.062 0 0 0-.105-.024l-.054-.01a2.012 2.012 0 0 0-.113-.015l-.046-.005a1.954 1.954 0 0 0-.309-.001c-.012 0-.023.003-.035.004a1.88 1.88 0 0 0-.114.013l-.044.009-.105.021-.048.013a2.012 2.012 0 0 0-.098.028l-.015.004-.028.011a2.022 2.022 0 0 0-.297.133l-.038.02a1.918 1.918 0 0 0-.137.088l-.05.038a1.998 1.998 0 0 0-.229.201c-.008.01-.018.017-.026.026a1.93 1.93 0 0 0-.114.134l-.007.01a1.939 1.939 0 0 0-.091.131l-.023.037a1.957 1.957 0 0 0-.063.112l-.024.048a1.97 1.97 0 0 0-.049.11l-.021.052-.008.018-1.47 4.02a1.93 1.93 0 0 0 1.149 2.477Z" fill="url(#m)"/><defs><linearGradient id="a" x1="11.61" y1="24.059" x2="36.507" y2="24.059" gradientUnits="userSpaceOnUse"><stop stop-color="#61DB99"/><stop offset="1" stop-color="#009E74"/></linearGradient><linearGradient id="b" x1="25.184" y1="27.865" x2="23.878" y2="23.118" gradientUnits="userSpaceOnUse"><stop stop-color="#009E74" stop-opacity="0"/><stop offset="1" stop-color="#009E74"/></linearGradient><linearGradient id="c" x1="10.207" y1="22.659" x2="35.105" y2="22.659" gradientUnits="userSpaceOnUse"><stop stop-color="#61DB99"/><stop offset="1" stop-color="#009E74"/></linearGradient><linearGradient id="d" x1="23.626" y1="27.038" x2="22.765" y2="22.914" gradientUnits="userSpaceOnUse"><stop stop-color="#009E74" stop-opacity="0"/><stop offset="1" stop-color="#009E74"/></linearGradient><linearGradient id="e" x1="8.809" y1="21.259" x2="33.707" y2="21.259" gradientUnits="userSpaceOnUse"><stop stop-color="#61DB99"/><stop offset="1" stop-color="#009E74"/></linearGradient><linearGradient id="f" x1="23.131" y1="28.398" x2="19.127" y2="12.543" gradientUnits="userSpaceOnUse"><stop stop-color="#009E74" stop-opacity="0"/><stop offset="1" stop-color="#009E74"/></linearGradient><linearGradient id="g" x1="7.492" y1="19.941" x2="32.39" y2="19.941" gradientUnits="userSpaceOnUse"><stop stop-color="#A7F3CE"/><stop offset="1" stop-color="#61DB99"/></linearGradient><linearGradient id="h" x1="13.436" y1="13.438" x2="29.279" y2="29.281" gradientUnits="userSpaceOnUse"><stop stop-color="#61DB99"/><stop offset="1" stop-color="#009E74"/></linearGradient><linearGradient id="i" x1="18.016" y1="18.017" x2="22.703" y2="22.704" gradientUnits="userSpaceOnUse"><stop stop-color="#A7F3CE"/><stop offset="1" stop-color="#61DB99"/></linearGradient><linearGradient id="j" x1="11.669" y1="15.162" x2="14.945" y2="18.438" gradientUnits="userSpaceOnUse"><stop stop-color="#A7F3CE"/><stop offset="1" stop-color="#61DB99"/></linearGradient><linearGradient id="k" x1="25.52" y1="22.031" x2="28.796" y2="25.308" gradientUnits="userSpaceOnUse"><stop stop-color="#A7F3CE"/><stop offset="1" stop-color="#61DB99"/></linearGradient><linearGradient id="l" x1="1.352" y1="9.077" x2="43.999" y2="9.077" gradientUnits="userSpaceOnUse"><stop stop-color="#FFB92D"/><stop offset="1" stop-color="#F59500"/></linearGradient><radialGradient id="m" cx="0" cy="0" r="1" gradientUnits="userSpaceOnUse" gradientTransform="rotate(180 11.142 11.07) scale(21.8589)"><stop stop-color="#BE3F45"/><stop offset=".317" stop-color="#C14046"/><stop offset=".538" stop-color="#CA4148"/><stop offset=".729" stop-color="#D9444B"/><stop offset=".902" stop-color="#EF4950"/><stop offset="1" stop-color="#FF4C54"/></radialGradient></defs></svg>