<svg width="54" height="54" fill="none" xmlns="http://www.w3.org/2000/svg"><path d="M43.688 30.375h-8.25a.844.844 0 1 1 0-1.688h8.25a.844.844 0 1 1 0 1.688Z" fill="#E0E2E5"/><path d="M25.313 19.406 27 39.656v1.688h10.125v-1.688l1.688-20.25h-13.5Z" fill="#93573D"/><path d="M16.875 19.406v-.843H13.5v2.53h-3.375v8.438h6.75v-.843h3.375v-9.282h-3.375Z" fill="#FDD14B"/><path d="M13.5 32.063a.844.844 0 0 1-.844-.844v-9.282a.843.843 0 1 1 1.688 0v9.282a.844.844 0 0 1-.844.843ZM16.996 33.75a.844.844 0 0 1-.844-.836l-.12-12.656a.844.844 0 0 1 1.687-.016l.12 12.656a.844.844 0 0 1-.835.852h-.008Z" fill="#E4BC43"/><path d="m9.281 27.844 1.688 11.812v1.688h10.125v-13.5H9.28Z" fill="#E74444"/><path d="M48.938 30.375H47.25a.844.844 0 1 1 0-1.688h1.688a.844.844 0 1 1 0 1.688Z" fill="#E0E2E5"/><path d="m38.813 19.406-.282 3.375H25.594l-.282-3.375h13.5Z" fill="#A4D4F4"/><path d="M23.674 14.344a.844.844 0 0 1-.702-1.312l.802-1.203a.844.844 0 0 0-.196-1.143l-.82-.616a2.531 2.531 0 0 1-.587-3.429l.801-1.203a.844.844 0 0 1 1.404.936l-.802 1.203a.844.844 0 0 0 .196 1.143l.821.616a2.531 2.531 0 0 1 .587 3.429l-.801 1.203a.843.843 0 0 1-.703.376ZM16.924 14.344a.843.843 0 0 1-.702-1.312l.802-1.203a.844.844 0 0 0-.196-1.143l-.82-.616a2.531 2.531 0 0 1-.587-3.429l.801-1.203a.844.844 0 1 1 1.404.936l-.802 1.203a.844.844 0 0 0 .196 1.143l.821.616a2.532 2.532 0 0 1 .587 3.43l-.801 1.202a.844.844 0 0 1-.703.376ZM30.33 14.344a.843.843 0 0 1-.701-1.312l.802-1.203a.844.844 0 0 0-.196-1.143l-.821-.616a2.532 2.532 0 0 1-.587-3.429l.801-1.203a.844.844 0 1 1 1.405.936l-.802 1.203a.844.844 0 0 0 .196 1.143l.821.616a2.532 2.532 0 0 1 .587 3.429l-.801 1.203a.843.843 0 0 1-.704.376ZM51.469 25.313h-9.282a.844.844 0 1 1 0-1.688h9.282a.844.844 0 0 1 0 1.688ZM45.563 35.438H40.5a.844.844 0 1 1 0-1.688h5.063a.844.844 0 1 1 0 1.688Z" fill="#E0E2E5"/><path d="M51.469 48.938H2.53a.844.844 0 0 1 0-1.688H51.47a.844.844 0 0 1 0 1.688Z" fill="#C2C5C6"/><path d="M2.531 39.656H44.72v1.688a1.687 1.687 0 0 1-1.688 1.687H4.22a1.687 1.687 0 0 1-1.688-1.687v-1.688Z" fill="#FDD14B"/><path d="M36.281 48.094a5.063 5.063 0 1 0 0-10.125 5.063 5.063 0 0 0 0 10.125Z" fill="#6A7073"/><path d="M36.281 44.719a1.688 1.688 0 1 0 0-3.375 1.688 1.688 0 0 0 0 3.375Z" fill="#99A2A7"/><path d="M10.969 48.094a5.062 5.062 0 1 0 0-10.125 5.062 5.062 0 0 0 0 10.125Z" fill="#6A7073"/><path d="M10.969 44.719a1.688 1.688 0 1 0 0-3.375 1.688 1.688 0 0 0 0 3.375Z" fill="#99A2A7"/><path d="M16.031 36.281H31.22v1.688a1.687 1.687 0 0 1-1.688 1.687H17.72a1.687 1.687 0 0 1-1.688-1.687V36.28Z" fill="#EA8333"/><path d="M30.529 32.906c.847 0 1.534.756 1.534 1.688 0 .932-.687 1.687-1.535 1.687H16.723c-.848 0-1.535-.755-1.535-1.687s.687-1.688 1.534-1.688H30.53Z" fill="#794832"/><path d="M16.875 29.531h13.5v3.375h-13.5v-3.375Z" fill="#FDD14B"/><path d="M32.906 30.375c0 1.398-1.187 2.531-2.652 2.531a2.685 2.685 0 0 1-2.21-1.132 2.723 2.723 0 0 1-4.419 0 2.723 2.723 0 0 1-4.42 0 2.683 2.683 0 0 1-2.21 1.132c-1.464 0-2.651-1.133-2.651-2.531a.843.843 0 0 1 .844-.844h16.874a.843.843 0 0 1 .844.844Z" fill="#3BA673"/><path d="M31.219 22.781v-6.75a.843.843 0 0 1 .53-.783l4.219-1.688a.844.844 0 0 1 .627 1.567l-3.689 1.475v6.18H31.22Z" fill="#E74444"/><path d="M31.219 19.406h1.687v3.375H31.22v-3.375Z" fill="#CE3536"/></svg>